<?xml version="1.0" encoding="utf-8"?>
<!-- Generator: Adobe Illustrator 21.1.0, SVG Export Plug-In . SVG Version: 6.00 Build 0)  -->
<svg version="1.1" id="Camada_1" xmlns="http://www.w3.org/2000/svg" xmlns:xlink="http://www.w3.org/1999/xlink" x="0px" y="0px"
	 viewBox="0 0 2000 1507.5" style="enable-background:new 0 0 2000 1507.5;" xml:space="preserve">
<style type="text/css">
	.st0{fill:#A1B574;}
	.st1{fill:#7A834B;}
	.st2{fill:#664B35;}
	.st3{fill:#A7B578;}
	.st4{fill:#158084;}
	.st5{fill:#005C60;}
	.st6{fill:#23969A;}
	.st7{fill:#CE8242;}
	.st8{fill:#9598B0;}
	.st9{fill:#4F5056;}
	.st10{fill:#F0F0F1;}
	.st11{fill:#DDDCDE;}
	.st12{fill:#C4C7D7;}
	.st13{opacity:0.6;fill:#F0F0F1;}
	.st14{fill:#B2B5CD;}
	.st15{fill:#7A7C95;}
	.st16{fill:#BDBDBD;}
	.st17{fill:#B0B3C8;}
	.st18{fill:#BD9674;}
	.st19{fill:#A8815F;}
	.st20{fill:#C59974;}
	.st21{fill:#B6625A;}
	.st22{fill:#944D4A;}
	.st23{fill:#616883;}
	.st24{fill:#818BA3;}
	.st25{clip-path:url(#SVGID_2_);fill:#525A71;}
	.st26{fill:#CACACF;}
	.st27{fill:#944C49;}
	.st28{fill:#FDFEFD;}
	.st29{fill:#C1AA95;}
	.st30{fill:#AA947F;}
	.st31{fill:#A56161;}
	.st32{fill:#C27370;}
	.st33{fill:#BBC982;}
	.st34{fill:#9A9A9A;}
	.st35{fill:#BABABA;}
	.st36{fill:#DADADC;}
</style>
<rect y="1181" class="st0" width="2000" height="326.5"/>
<g>
	<ellipse class="st1" cx="225.2" cy="628.1" rx="170.9" ry="179.5"/>
	<ellipse class="st1" cx="1591.6" cy="540.7" rx="170.9" ry="179.5"/>
	<g>
		<rect x="1863.9" y="834.1" class="st2" width="29.1" height="218.4"/>
		<circle class="st3" cx="1838.5" cy="738.5" r="137.8"/>
	</g>
	<g>
		<rect x="117.3" y="832.7" class="st2" width="29.1" height="218.4"/>
		<ellipse class="st3" cx="131.9" cy="817.6" rx="108.2" ry="149.4"/>
	</g>
	<g>
		<g>
			<rect x="858.1" y="425" class="st4" width="416.8" height="627.5"/>
			<g>
				<rect x="858.1" y="372.4" class="st5" width="416.8" height="70.8"/>
				<g>
					<rect x="979.1" y="658" class="st5" width="38.3" height="18.7"/>
					<rect x="998.3" y="636.5" class="st5" width="38.3" height="18.7"/>
				</g>
				<g>
					<rect x="1201" y="658.8" class="st5" width="36.6" height="17.9"/>
					<rect x="1180.1" y="638.3" class="st5" width="36.7" height="17.9"/>
				</g>
				<g>
					<rect x="977.2" y="469.2" class="st5" width="37.3" height="18.2"/>
					<rect x="995.9" y="448.3" class="st5" width="37.3" height="18.2"/>
					<rect x="955.9" y="448.3" class="st5" width="37.3" height="18.2"/>
				</g>
				<g>
					<rect x="981" y="829.9" class="st5" width="37.3" height="18.2"/>
					<rect x="999.6" y="809" class="st5" width="37.3" height="18.2"/>
					<rect x="959.7" y="809" class="st5" width="37.3" height="18.2"/>
				</g>
				<rect x="1224.4" y="768" class="st5" width="38.3" height="18.7"/>
				<rect x="882.2" y="637.9" class="st5" width="38.3" height="18.7"/>
			</g>
			<rect x="836.2" y="398.4" class="st6" width="460.5" height="26.5"/>
			<rect x="836.2" y="352" class="st6" width="460.5" height="26.5"/>
			<line class="st7" x1="1274.8" y1="443.2" x2="858.1" y2="443.2"/>
			<rect x="858.1" y="853.6" class="st8" width="416.8" height="198.9"/>
			<g>
				<g>
					<g>
						<rect x="901.4" y="693.6" class="st9" width="67.1" height="111.8"/>
						<rect x="898.9" y="753" class="st10" width="71.9" height="6.4"/>
						<g>
							<path class="st11" d="M897.8,808.9H972V690h-74.1V808.9z M904.9,697.1h60v104.7h-60V697.1z"/>
						</g>
						<rect x="895.2" y="687.2" class="st10" width="79.3" height="6.4"/>
						<rect x="889.3" y="809" class="st10" width="91.1" height="11.2"/>
					</g>
					<g>
						<rect x="1032.9" y="693.6" class="st9" width="67.1" height="111.8"/>
						<rect x="1030.5" y="753" class="st10" width="71.9" height="6.4"/>
						<g>
							<path class="st11" d="M1029.4,808.9h74.1V690h-74.1V808.9z M1036.5,697.1h60v104.7h-60V697.1z"/>
						</g>
						<rect x="1026.8" y="687.2" class="st10" width="79.3" height="6.4"/>
						<rect x="1020.9" y="809" class="st10" width="91.1" height="11.2"/>
					</g>
					<g>
						<rect x="1164.5" y="693.6" class="st9" width="67.1" height="111.8"/>
						<rect x="1162.1" y="753" class="st10" width="71.9" height="6.4"/>
						<g>
							<path class="st11" d="M1160.9,808.9h74.1V690h-74.1V808.9z M1168,697.1h60v104.7h-60V697.1z"/>
						</g>
						<rect x="1158.3" y="687.2" class="st10" width="79.3" height="6.4"/>
						<rect x="1152.4" y="809" class="st10" width="91.1" height="11.2"/>
					</g>
				</g>
				<g>
					<g>
						<rect x="901.4" y="495.8" class="st9" width="67.1" height="111.8"/>
						<rect x="898.9" y="555.2" class="st10" width="71.9" height="6.4"/>
						<g>
							<path class="st11" d="M897.8,611.1H972V492.2h-74.1V611.1z M904.9,499.3h60V604h-60V499.3z"/>
						</g>
						<rect x="895.2" y="489.3" class="st10" width="79.3" height="6.4"/>
						<rect x="889.3" y="611.2" class="st10" width="91.1" height="11.2"/>
					</g>
					<g>
						<rect x="1032.9" y="495.8" class="st9" width="67.1" height="111.8"/>
						<rect x="1030.5" y="555.2" class="st10" width="71.9" height="6.4"/>
						<g>
							<path class="st11" d="M1029.4,611.1h74.1V492.2h-74.1V611.1z M1036.5,499.3h60V604h-60V499.3z"/>
						</g>
						<rect x="1026.8" y="489.3" class="st10" width="79.3" height="6.4"/>
						<rect x="1020.9" y="611.2" class="st10" width="91.1" height="11.2"/>
					</g>
					<g>
						<rect x="1164.5" y="495.8" class="st9" width="67.1" height="111.8"/>
						<rect x="1162.1" y="555.2" class="st10" width="71.9" height="6.4"/>
						<g>
							<path class="st11" d="M1160.9,611.1h74.1V492.2h-74.1V611.1z M1168,499.3h60V604h-60V499.3z"/>
						</g>
						<rect x="1158.3" y="489.3" class="st10" width="79.3" height="6.4"/>
						<rect x="1152.4" y="611.2" class="st10" width="91.1" height="11.2"/>
					</g>
				</g>
			</g>
			<g>
				<g>
					<rect x="877.5" y="890.5" class="st9" width="126.5" height="123.7"/>
					<path class="st12" d="M873.5,1018.1h134.3V886.5H873.5V1018.1z M974.6,894.4h25.3v27.2h-25.3V894.4z M974.6,925.1h25.3v26.2
						h-25.3V925.1z M974.6,954.8h25.3v26.4h-25.3V954.8z M974.6,984.8h25.3v25.4h-25.3V984.8z M943.2,894.4h27.9v27.2h-27.9V894.4z
						 M943.2,925.1h27.9v26.2h-27.9V925.1z M943.2,954.8h27.9v26.4h-27.9V954.8z M943.2,984.8h27.9v25.4h-27.9V984.8z M911.8,894.4
						h27.9v27.2h-27.9V894.4z M911.8,925.1h27.9v26.2h-27.9V925.1z M911.8,954.8h27.9v26.4h-27.9V954.8z M911.8,984.8h27.9v25.4
						h-27.9V984.8z M881.4,894.4h26.9v27.2h-26.9V894.4z M881.4,925.1h26.9v26.2h-26.9V925.1z M881.4,954.8h26.9v26.4h-26.9V954.8z
						 M881.4,984.8h26.9v25.4h-26.9V984.8z"/>
					<rect x="868.8" y="879.9" class="st10" width="143.8" height="6.6"/>
				</g>
				<g>
					<rect x="1127.4" y="890.5" class="st9" width="126.4" height="123.7"/>
					<path class="st12" d="M1123.5,1018.1h134.3V886.5h-134.3V1018.1z M1224.6,894.4h25.3v27.2h-25.3V894.4z M1224.6,925.1h25.3
						v26.2h-25.3V925.1z M1224.6,954.8h25.3v26.4h-25.3V954.8z M1224.6,984.8h25.3v25.4h-25.3V984.8z M1193.2,894.4h27.9v27.2h-27.9
						V894.4z M1193.2,925.1h27.9v26.2h-27.9V925.1z M1193.2,954.8h27.9v26.4h-27.9V954.8z M1193.2,984.8h27.9v25.4h-27.9V984.8z
						 M1161.7,894.4h27.9v27.2h-27.9V894.4z M1161.7,925.1h27.9v26.2h-27.9V925.1z M1161.7,954.8h27.9v26.4h-27.9V954.8z
						 M1161.7,984.8h27.9v25.4h-27.9V984.8z M1131.4,894.4h26.9v27.2h-26.9V894.4z M1131.4,925.1h26.9v26.2h-26.9V925.1z
						 M1131.4,954.8h26.9v26.4h-26.9V954.8z M1131.4,984.8h26.9v25.4h-26.9V984.8z"/>
					<rect x="1118.8" y="879.9" class="st10" width="143.8" height="6.6"/>
				</g>
			</g>
			<g>
				<g>
					<path class="st10" d="M1024,1051.9h87V878.6h-87V1051.9z M1031.9,886.5h71.2v162h-71.2V886.5z"/>
				</g>
				<rect x="1027.9" y="882.6" class="st12" width="79.1" height="169.9"/>
				<rect x="1034" y="890.5" class="st9" width="67.1" height="94.7"/>
				<rect x="1034.2" y="994" class="st13" width="66.7" height="50.9"/>
				<rect x="1032.2" y="918.5" class="st12" width="70.6" height="3.5"/>
				<rect x="1032.2" y="951.3" class="st12" width="70.6" height="3.5"/>
				<rect x="1065.7" y="886.5" class="st12" width="3.5" height="107.4"/>
			</g>
			<rect x="851.1" y="851" class="st14" width="429" height="9.7"/>
			<rect x="1080.8" y="637.9" class="st5" width="38.3" height="18.7"/>
			<rect x="1050.1" y="448.1" class="st5" width="38.3" height="18.7"/>
		</g>
		<g>
			<g>
				<polygon class="st8" points="202,531.1 202,1052.5 515.8,1052.5 515.8,531.1 357,381.1 				"/>
				<polygon class="st15" points="202,531.1 202,561.3 356.3,407 515.8,561.3 515.8,531.1 357,381.1 				"/>
				<g>
					<polygon class="st16" points="177.8,541.3 189,552.5 354.6,387.3 529,552.6 539.9,541.2 354.3,365.3 					"/>
				</g>
				<rect x="202" y="845.3" class="st15" width="313.8" height="18.2"/>
				<rect x="202" y="632" class="st15" width="313.8" height="18.2"/>
				<rect x="202" y="837.4" class="st17" width="313.8" height="18.2"/>
				<rect x="202" y="624.1" class="st17" width="313.8" height="18.2"/>
				<rect x="202" y="973.3" class="st15" width="313.8" height="79.1"/>
			</g>
			<g>
				<rect x="316.8" y="878.6" class="st18" width="84.2" height="173.8"/>
				<rect x="323.5" y="984.3" class="st19" width="70.7" height="60.5"/>
				<rect x="323.5" y="883.9" class="st19" width="70.7" height="92.5"/>
				<rect x="329.6" y="890.5" class="st20" width="58.6" height="80.2"/>
				<rect x="329.6" y="988.7" class="st20" width="58.6" height="51.3"/>
			</g>
			<g>
				<g>
					<g>
						<rect x="230.6" y="893.6" class="st9" width="56.9" height="78.8"/>
						<rect x="228.6" y="930.2" class="st10" width="61" height="4.5"/>
						<rect x="256.8" y="896.1" class="st10" width="4.5" height="78.4"/>
						<g>
							<path class="st11" d="M227.6,974.9h62.9v-83.8h-62.9V974.9z M233.6,896.1h50.9v73.8h-50.9V896.1z"/>
						</g>
						<rect x="225.4" y="889.1" class="st10" width="67.3" height="4.5"/>
						<rect x="220.4" y="975" class="st10" width="77.3" height="7.9"/>
					</g>
				</g>
				<g>
					<g>
						<rect x="430.2" y="885.9" class="st9" width="56.9" height="78.8"/>
						<rect x="428.2" y="922.6" class="st10" width="61" height="4.5"/>
						<rect x="456.4" y="888.4" class="st10" width="4.5" height="78.4"/>
						<g>
							<path class="st11" d="M427.2,967.3h62.9v-83.8h-62.9V967.3z M433.2,888.4h50.9v73.8h-50.9V888.4z"/>
						</g>
						<rect x="425" y="881.4" class="st10" width="67.3" height="4.5"/>
						<rect x="420" y="967.3" class="st10" width="77.3" height="7.9"/>
					</g>
				</g>
			</g>
			<g>
				<g>
					<path class="st9" d="M261.7,687c-20,0-36.2,16.2-36.2,36.2V792H298v-68.8C298,703.2,281.7,687,261.7,687z"/>
					<g>
						<path class="st11" d="M261.7,684c-21.6,0-39.3,17.6-39.3,39.3V795H301v-71.8C301,701.6,283.4,684,261.7,684z M295,789h-66.4
							v-65.8c0-18.3,14.9-33.2,33.2-33.2c18.3,0,33.2,14.9,33.2,33.2V789z"/>
					</g>
					<rect x="217.7" y="795.2" class="st10" width="88" height="6.5"/>
					<rect x="260.1" y="688.8" class="st11" width="4.6" height="106.9"/>
					<rect x="226.4" y="721.2" class="st11" width="74.4" height="4.6"/>
					<rect x="226.4" y="757.1" class="st11" width="74.4" height="4.6"/>
				</g>
				<g>
					<path class="st9" d="M358.9,687c-20,0-36.2,16.2-36.2,36.2V792h72.5v-68.8C395.1,703.2,378.9,687,358.9,687z"/>
					<g>
						<path class="st11" d="M358.9,684c-21.6,0-39.3,17.6-39.3,39.3V795h78.5v-71.8C398.1,701.6,380.5,684,358.9,684z M392.1,789
							h-66.4v-65.8c0-18.3,14.9-33.2,33.2-33.2c18.3,0,33.2,14.9,33.2,33.2V789z"/>
					</g>
					<rect x="314.9" y="795.2" class="st10" width="88" height="6.5"/>
					<rect x="357.3" y="688.8" class="st11" width="4.6" height="106.9"/>
					<rect x="323.5" y="721.2" class="st11" width="74.4" height="4.6"/>
					<rect x="323.5" y="757.1" class="st11" width="74.4" height="4.6"/>
				</g>
				<g>
					<path class="st9" d="M456,687c-20,0-36.2,16.2-36.2,36.2V792h72.5v-68.8C492.2,703.2,476,687,456,687z"/>
					<g>
						<path class="st11" d="M456,684c-21.6,0-39.3,17.6-39.3,39.3V795h78.5v-71.8C495.3,701.6,477.6,684,456,684z M489.2,789h-66.4
							v-65.8c0-18.3,14.9-33.2,33.2-33.2c18.3,0,33.2,14.9,33.2,33.2V789z"/>
					</g>
					<rect x="412" y="795.2" class="st10" width="88" height="6.5"/>
					<rect x="454.4" y="688.8" class="st11" width="4.6" height="106.9"/>
					<rect x="420.7" y="721.2" class="st11" width="74.4" height="4.6"/>
					<rect x="420.7" y="757.1" class="st11" width="74.4" height="4.6"/>
				</g>
			</g>
			<g>
				<g>
					<g>
						<path class="st9" d="M261.9,531.9c-20,0-36.2,16.2-36.2,36.2v38.7h72.5v-38.7C298.1,548.1,281.9,531.9,261.9,531.9z"/>
						<g>
							<path class="st11" d="M261.9,528.9c-21.6,0-39.3,17.6-39.3,39.3v38.7h6v-38.7c0-18.3,14.9-33.2,33.2-33.2
								c18.3,0,33.2,14.9,33.2,33.2v38.7h6v-38.7C301.2,546.5,283.6,528.9,261.9,528.9z"/>
						</g>
						<rect x="217.9" y="606.8" class="st10" width="88" height="7.3"/>
						<rect x="259.6" y="533.7" class="st11" width="4.6" height="73"/>
						<rect x="224.7" y="566.1" class="st11" width="74.4" height="4.6"/>
						<rect x="224.7" y="602" class="st11" width="74.4" height="4.8"/>
					</g>
				</g>
				<g>
					<g>
						<path class="st9" d="M358.9,531.9c-20,0-36.2,16.2-36.2,36.2v38.7h72.5v-38.7C395.1,548.1,378.9,531.9,358.9,531.9z"/>
						<g>
							<path class="st11" d="M358.9,528.9c-21.6,0-39.3,17.6-39.3,39.3v38.7h6v-38.7c0-18.3,14.9-33.2,33.2-33.2
								c18.3,0,33.2,14.9,33.2,33.2v38.7h6v-38.7C398.1,546.5,380.5,528.9,358.9,528.9z"/>
						</g>
						<rect x="314.9" y="606.8" class="st10" width="88" height="7.3"/>
						<rect x="356.6" y="533.7" class="st11" width="4.6" height="73"/>
						<rect x="321.6" y="566.1" class="st11" width="74.4" height="4.6"/>
						<rect x="321.6" y="602" class="st11" width="74.4" height="4.8"/>
					</g>
				</g>
				<g>
					<g>
						<path class="st9" d="M455.8,531.9c-20,0-36.2,16.2-36.2,36.2v38.7h72.5v-38.7C492.1,548.1,475.8,531.9,455.8,531.9z"/>
						<g>
							<path class="st11" d="M455.8,528.9c-21.6,0-39.3,17.6-39.3,39.3v38.7h6v-38.7c0-18.3,14.9-33.2,33.2-33.2
								c18.3,0,33.2,14.9,33.2,33.2v38.7h6v-38.7C495.1,546.5,477.5,528.9,455.8,528.9z"/>
						</g>
						<rect x="411.8" y="606.8" class="st10" width="88" height="7.3"/>
						<rect x="453.5" y="533.7" class="st11" width="4.6" height="73"/>
						<rect x="418.6" y="566.1" class="st11" width="74.4" height="4.6"/>
						<rect x="418.6" y="602" class="st11" width="74.4" height="4.8"/>
					</g>
				</g>
			</g>
			<g>
				<circle class="st10" cx="358.9" cy="475.9" r="35.4"/>
				<circle class="st9" cx="358.9" cy="475.9" r="27.3"/>
			</g>
		</g>
		<g>
			<rect x="515.6" y="667.7" class="st21" width="343.8" height="384.8"/>
			<rect x="515.6" y="667.7" class="st22" width="343.8" height="22.7"/>
			<polygon class="st23" points="562.9,511.3 515.6,667.7 859.4,667.7 807.6,511.3 			"/>
			<rect x="511.6" y="658.7" class="st24" width="351.7" height="18"/>
			<g>
				<defs>
					<polygon id="SVGID_1_" points="807.6,511.3 562.9,511.3 515.6,667.7 859.4,667.7 					"/>
				</defs>
				<clipPath id="SVGID_2_">
					<use xlink:href="#SVGID_1_"  style="overflow:visible;"/>
				</clipPath>
				<rect x="499.8" y="519.2" class="st25" width="353.9" height="13.2"/>
				<rect x="499.8" y="542.4" class="st25" width="353.9" height="13.2"/>
				<rect x="499.8" y="565.5" class="st25" width="353.9" height="13.2"/>
				<rect x="499.8" y="588.7" class="st25" width="353.9" height="13.2"/>
				<rect x="499.8" y="611.9" class="st25" width="353.9" height="13.2"/>
				<rect x="499.8" y="635" class="st25" width="353.9" height="13.2"/>
			</g>
			<g>
				<g>
					<path class="st24" d="M616.6,635h159l-79.5-115.6L616.6,635z M635.5,630.9l60.7-88.2l60.7,88.2H635.5z"/>
				</g>
				<polygon class="st21" points="624.6,635 767.7,635 696.1,531 				"/>
				<g>
					<rect x="677.6" y="578.3" class="st9" width="37" height="53.1"/>
					<g>
						<path class="st26" d="M674,635h44.3v-60.3H674V635z M681.2,581.9H711v45.8h-29.8V581.9z"/>
					</g>
				</g>
			</g>
			<g>
				<g>
					<rect x="550.8" y="721.5" class="st9" width="56.9" height="94.9"/>
					<rect x="548.7" y="771.9" class="st10" width="61" height="5.4"/>
					<g>
						<path class="st11" d="M547.8,819.4h62.9V718.5h-62.9V819.4z M553.8,724.5h50.9v88.8h-50.9V724.5z"/>
					</g>
					<rect x="545.6" y="716.1" class="st10" width="67.3" height="5.4"/>
					<rect x="540.6" y="819.5" class="st10" width="77.3" height="9.5"/>
				</g>
				<g>
					<rect x="662.4" y="721.5" class="st9" width="56.9" height="94.9"/>
					<rect x="660.4" y="771.9" class="st10" width="61" height="5.4"/>
					<g>
						<path class="st11" d="M659.4,819.4h62.9V718.5h-62.9V819.4z M665.4,724.5h50.9v88.8h-50.9V724.5z"/>
					</g>
					<rect x="657.2" y="716.1" class="st10" width="67.3" height="5.4"/>
					<rect x="652.2" y="819.5" class="st10" width="77.3" height="9.5"/>
				</g>
				<g>
					<rect x="774.1" y="721.5" class="st9" width="56.9" height="94.9"/>
					<rect x="772" y="771.9" class="st10" width="61" height="5.4"/>
					<g>
						<path class="st11" d="M771.1,819.4H834V718.5h-62.9V819.4z M777.1,724.5H828v88.8h-50.9V724.5z"/>
					</g>
					<rect x="768.9" y="716.1" class="st10" width="67.3" height="5.4"/>
					<rect x="763.8" y="819.5" class="st10" width="77.3" height="9.5"/>
				</g>
			</g>
			<rect x="515.6" y="996.6" class="st27" width="343.8" height="55.9"/>
			<g>
				<g>
					<rect x="662.4" y="888.6" class="st9" width="56.9" height="94.9"/>
					<rect x="660.4" y="939" class="st10" width="61" height="5.4"/>
					<g>
						<path class="st11" d="M659.4,986.4h62.9V885.6h-62.9V986.4z M665.4,891.6h50.9v88.8h-50.9V891.6z"/>
					</g>
					<rect x="657.2" y="883.1" class="st10" width="67.3" height="5.4"/>
					<rect x="652.2" y="986.5" class="st10" width="77.3" height="9.5"/>
				</g>
				<g>
					<rect x="774.1" y="888.6" class="st9" width="56.9" height="94.9"/>
					<rect x="772" y="939" class="st10" width="61" height="5.4"/>
					<g>
						<path class="st11" d="M771.1,986.4H834V885.6h-62.9V986.4z M777.1,891.6H828v88.8h-50.9V891.6z"/>
					</g>
					<rect x="768.9" y="883.1" class="st10" width="67.3" height="5.4"/>
					<rect x="763.8" y="986.5" class="st10" width="77.3" height="9.5"/>
				</g>
			</g>
			<g>
				<g>
					<path class="st28" d="M536.8,1052.5h87V880.9h-87V1052.5z M544.7,888.8h71.2v162h-71.2V888.8z"/>
				</g>
				<rect x="540.7" y="884.9" class="st11" width="79.1" height="167.6"/>
				<rect x="552.3" y="898.3" class="st9" width="56" height="84.3"/>
				<rect x="553.1" y="996.6" class="st10" width="54.4" height="50.9"/>
			</g>
		</g>
		<g>
			<rect x="1274.5" y="667" class="st29" width="343.8" height="384.8"/>
			<rect x="1274.5" y="667" class="st30" width="343.8" height="22.7"/>
			<polygon class="st22" points="1274.1,667 1617.9,667 1618.8,510.6 1274.1,510.6 			"/>
			<rect x="1270.5" y="658" class="st31" width="351.7" height="18"/>
			<g>
				<g>
					<g>
						<path class="st24" d="M1303.2,624.2h128.2l-64.1-93.2L1303.2,624.2z M1318.4,620.9l48.9-71.1l48.9,71.1H1318.4z"/>
					</g>
					<polygon class="st29" points="1309.7,624.2 1425,624.2 1367.3,540.4 					"/>
					<g>
						<rect x="1352.4" y="578.5" class="st9" width="29.9" height="42.8"/>
						<g>
							<path class="st26" d="M1349.5,624.2h35.7v-48.6h-35.7V624.2z M1355.3,581.4h24v36.9h-24V581.4z"/>
						</g>
					</g>
				</g>
				<g>
					<g>
						<path class="st24" d="M1461.4,624.2h128.2l-64.1-93.2L1461.4,624.2z M1476.6,620.9l48.9-71.1l48.9,71.1H1476.6z"/>
					</g>
					<polygon class="st29" points="1467.8,624.2 1583.1,624.2 1525.5,540.4 					"/>
					<g>
						<rect x="1510.6" y="578.5" class="st9" width="29.9" height="42.8"/>
						<g>
							<path class="st26" d="M1507.6,624.2h35.7v-48.6h-35.7V624.2z M1513.5,581.4h24v36.9h-24V581.4z"/>
						</g>
					</g>
				</g>
			</g>
			<rect x="1274.5" y="995.9" class="st30" width="343.8" height="55.9"/>
			<g>
				<g>
					<path class="st28" d="M1402.9,1052.5h87V880.9h-87V1052.5z M1410.8,888.8h71.2v162h-71.2V888.8z"/>
				</g>
				<rect x="1406.9" y="884.9" class="st11" width="79.1" height="167.6"/>
				<rect x="1418.4" y="898.3" class="st9" width="55.9" height="84.3"/>
				<rect x="1419.2" y="996.6" class="st10" width="54.4" height="50.9"/>
			</g>
			<g>
				<g>
					<path class="st9" d="M1337.4,879.4c-20,0-36.2,16.2-36.2,36.2v68.8h72.5v-68.8C1373.7,895.7,1357.5,879.4,1337.4,879.4z"/>
					<g>
						<path class="st11" d="M1337.4,876.4c-21.6,0-39.3,17.6-39.3,39.3v71.8h78.5v-71.8C1376.7,894,1359.1,876.4,1337.4,876.4z
							 M1370.7,981.4h-66.4v-65.8c0-18.3,14.9-33.2,33.2-33.2c18.3,0,33.2,14.9,33.2,33.2V981.4z"/>
					</g>
					<rect x="1293.4" y="987.7" class="st10" width="88" height="6.5"/>
					<rect x="1335.9" y="881.3" class="st11" width="4.6" height="106.9"/>
					<rect x="1302.1" y="913.6" class="st11" width="74.4" height="4.6"/>
					<rect x="1302.1" y="949.5" class="st11" width="74.4" height="4.6"/>
				</g>
				<g>
					<path class="st9" d="M1555.4,879.4c-20,0-36.2,16.2-36.2,36.2v68.8h72.5v-68.8C1591.6,895.7,1575.4,879.4,1555.4,879.4z"/>
					<g>
						<path class="st11" d="M1555.4,876.4c-21.6,0-39.3,17.6-39.3,39.3v71.8h78.5v-71.8C1594.6,894,1577,876.4,1555.4,876.4z
							 M1588.6,981.4h-66.4v-65.8c0-18.3,14.9-33.2,33.2-33.2c18.3,0,33.2,14.9,33.2,33.2V981.4z"/>
					</g>
					<rect x="1511.3" y="987.7" class="st10" width="88" height="6.5"/>
					<rect x="1553.8" y="881.3" class="st11" width="4.6" height="106.9"/>
					<rect x="1520" y="913.6" class="st11" width="74.4" height="4.6"/>
					<rect x="1520" y="949.5" class="st11" width="74.4" height="4.6"/>
				</g>
			</g>
			<g>
				<g>
					<path class="st9" d="M1336.9,702.9c-20,0-36.2,16.2-36.2,36.2v68.8h72.5v-68.8C1373.1,719.1,1356.9,702.9,1336.9,702.9z"/>
					<g>
						<path class="st11" d="M1336.9,699.8c-21.6,0-39.2,17.6-39.2,39.2v71.8h78.5v-71.8C1376.1,717.5,1358.5,699.8,1336.9,699.8z
							 M1370.1,804.9h-66.4v-65.8c0-18.3,14.9-33.2,33.2-33.2c18.3,0,33.2,14.9,33.2,33.2V804.9z"/>
					</g>
					<rect x="1292.9" y="811.1" class="st10" width="88" height="6.5"/>
					<rect x="1335.3" y="704.7" class="st11" width="4.6" height="106.9"/>
					<rect x="1301.5" y="737" class="st11" width="74.4" height="4.6"/>
					<rect x="1301.5" y="773" class="st11" width="74.4" height="4.6"/>
				</g>
				<g>
					<path class="st9" d="M1447.3,702.9c-20,0-36.2,16.2-36.2,36.2v68.8h72.5v-68.8C1483.6,719.1,1467.3,702.9,1447.3,702.9z"/>
					<g>
						<path class="st11" d="M1447.3,699.8c-21.6,0-39.3,17.6-39.3,39.2v71.8h78.5v-71.8C1486.6,717.5,1469,699.8,1447.3,699.8z
							 M1480.5,804.9h-66.4v-65.8c0-18.3,14.9-33.2,33.2-33.2c18.3,0,33.2,14.9,33.2,33.2V804.9z"/>
					</g>
					<rect x="1403.3" y="811.1" class="st10" width="88" height="6.5"/>
					<rect x="1445.7" y="704.7" class="st11" width="4.6" height="106.9"/>
					<rect x="1412" y="737" class="st11" width="74.4" height="4.6"/>
					<rect x="1412" y="773" class="st11" width="74.4" height="4.6"/>
				</g>
				<g>
					<path class="st9" d="M1555.9,702.9c-20,0-36.2,16.2-36.2,36.2v68.8h72.5v-68.8C1592.2,719.1,1575.9,702.9,1555.9,702.9z"/>
					<g>
						<path class="st11" d="M1555.9,699.8c-21.6,0-39.2,17.6-39.2,39.2v71.8h78.5v-71.8C1595.2,717.5,1577.6,699.8,1555.9,699.8z
							 M1589.2,804.9h-66.4v-65.8c0-18.3,14.9-33.2,33.2-33.2c18.3,0,33.2,14.9,33.2,33.2V804.9z"/>
					</g>
					<rect x="1511.9" y="811.1" class="st10" width="88" height="6.5"/>
					<rect x="1554.3" y="704.7" class="st11" width="4.6" height="106.9"/>
					<rect x="1520.6" y="737" class="st11" width="74.4" height="4.6"/>
					<rect x="1520.6" y="773" class="st11" width="74.4" height="4.6"/>
				</g>
			</g>
		</g>
		<g>
			<g>
				<polygon class="st21" points="1617.7,531.1 1617.7,1052.5 1870,1052.5 1870,531.1 1742.3,381.1 				"/>
				<polygon class="st31" points="1617.7,531.1 1617.7,561.3 1741.8,407 1870,561.3 1870,531.1 1742.3,381.1 				"/>
				<g>
					<polygon class="st16" points="1598.3,541.3 1607.3,552.5 1740.4,387.3 1880.6,552.6 1889.4,541.2 1740.2,365.3 					"/>
				</g>
				<rect x="1617.7" y="845.3" class="st31" width="252.2" height="18.2"/>
				<rect x="1617.7" y="632" class="st31" width="252.2" height="18.2"/>
				<rect x="1617.7" y="837.4" class="st32" width="252.2" height="18.2"/>
				<rect x="1617.7" y="624.1" class="st32" width="252.2" height="18.2"/>
			</g>
			<g>
				<g>
					<rect x="1644.5" y="878" class="st18" width="84.2" height="173.8"/>
					<rect x="1651.2" y="983.7" class="st19" width="70.7" height="60.5"/>
					<rect x="1651.2" y="883.3" class="st19" width="70.7" height="92.5"/>
					<rect x="1657.3" y="889.8" class="st20" width="58.6" height="80.2"/>
					<rect x="1657.3" y="988" class="st20" width="58.6" height="51.3"/>
				</g>
				<g>
					<path class="st9" d="M1799.2,881c-20,0-36.2,16.2-36.2,36.2V986h72.5v-68.8C1835.4,897.2,1819.2,881,1799.2,881z"/>
					<g>
						<path class="st11" d="M1799.2,878c-21.6,0-39.3,17.6-39.3,39.2v71.8h78.5v-71.8C1838.5,895.6,1820.8,878,1799.2,878z
							 M1832.4,983H1766v-65.8c0-18.3,14.9-33.2,33.2-33.2c18.3,0,33.2,14.9,33.2,33.2V983z"/>
					</g>
					<rect x="1755.2" y="989.2" class="st10" width="88" height="6.5"/>
					<rect x="1797.6" y="882.9" class="st11" width="4.6" height="106.9"/>
					<rect x="1763.9" y="915.2" class="st11" width="74.4" height="4.6"/>
					<rect x="1763.9" y="951.1" class="st11" width="74.4" height="4.6"/>
				</g>
			</g>
			<g>
				<g>
					<path class="st9" d="M1684.3,686.5c-20,0-36.2,16.2-36.2,36.2v68.8h72.5v-68.8C1720.5,702.7,1704.3,686.5,1684.3,686.5z"/>
					<g>
						<path class="st11" d="M1684.3,683.5c-21.7,0-39.3,17.6-39.3,39.3v71.8h78.5v-71.8C1723.5,701.1,1705.9,683.5,1684.3,683.5z
							 M1717.5,788.5h-66.4v-65.8c0-18.3,14.9-33.2,33.2-33.2c18.3,0,33.2,14.9,33.2,33.2V788.5z"/>
					</g>
					<rect x="1640.3" y="794.7" class="st10" width="88" height="6.5"/>
					<rect x="1682.7" y="688.4" class="st11" width="4.6" height="106.9"/>
					<rect x="1649" y="720.7" class="st11" width="74.4" height="4.6"/>
					<rect x="1649" y="756.6" class="st11" width="74.4" height="4.6"/>
				</g>
				<g>
					<path class="st9" d="M1803.4,686.5c-20,0-36.2,16.2-36.2,36.2v68.8h72.5v-68.8C1839.6,702.7,1823.4,686.5,1803.4,686.5z"/>
					<g>
						<path class="st11" d="M1803.4,683.5c-21.6,0-39.3,17.6-39.3,39.3v71.8h78.5v-71.8C1842.7,701.1,1825,683.5,1803.4,683.5z
							 M1836.6,788.5h-66.4v-65.8c0-18.3,14.9-33.2,33.2-33.2c18.3,0,33.2,14.9,33.2,33.2V788.5z"/>
					</g>
					<rect x="1759.4" y="794.7" class="st10" width="88" height="6.5"/>
					<rect x="1801.8" y="688.4" class="st11" width="4.6" height="106.9"/>
					<rect x="1768" y="720.7" class="st11" width="74.4" height="4.6"/>
					<rect x="1768" y="756.6" class="st11" width="74.4" height="4.6"/>
				</g>
			</g>
			<g>
				<path class="st9" d="M1743.8,477.9c-20,0-36.2,16.2-36.2,36.2v68.8h72.5v-68.8C1780.1,494.1,1763.9,477.9,1743.8,477.9z"/>
				<g>
					<path class="st11" d="M1743.8,474.9c-21.6,0-39.3,17.6-39.3,39.3v71.8h78.5v-71.8C1783.1,492.5,1765.5,474.9,1743.8,474.9z
						 M1777.1,579.9h-66.4v-65.8c0-18.3,14.9-33.2,33.2-33.2c18.3,0,33.2,14.9,33.2,33.2V579.9z"/>
				</g>
				<rect x="1699.8" y="586.1" class="st10" width="88" height="6.5"/>
				<rect x="1742.3" y="479.7" class="st11" width="4.6" height="106.9"/>
				<rect x="1708.5" y="512.1" class="st11" width="74.4" height="4.6"/>
				<rect x="1708.5" y="548" class="st11" width="74.4" height="4.6"/>
			</g>
		</g>
	</g>
	<g>
		<rect x="176.6" y="870.9" class="st2" width="24.4" height="183"/>
		<path class="st33" d="M186.2,952.6c134.7,0,0-368.5,0-368.5S47.2,952.6,186.2,952.6z"/>
	</g>
</g>
<g>
	<rect y="1054.1" class="st34" width="2000" height="171.1"/>
	<rect y="1051.4" class="st35" width="2000" height="43.1"/>
	<rect y="1080.1" class="st36" width="2000" height="16.3"/>
	<rect y="1225.2" class="st35" width="2000" height="73.1"/>
	<rect y="1217.1" class="st36" width="2000" height="16.3"/>
	<rect y="1290.2" class="st36" width="2000" height="16.3"/>
</g>
</svg>
