<?xml version="1.0" encoding="utf-8"?>
<!-- Generator: Adobe Illustrator 21.1.0, SVG Export Plug-In . SVG Version: 6.00 Build 0)  -->
<svg version="1.1" id="Camada_1" xmlns="http://www.w3.org/2000/svg" xmlns:xlink="http://www.w3.org/1999/xlink" x="0px" y="0px"
	 viewBox="0 0 2000 1507.5" style="enable-background:new 0 0 2000 1507.5;" xml:space="preserve">
<style type="text/css">
	.st0{fill:#BBD9DE;}
	.st1{fill:#E2EFF0;}
	.st2{fill:#BBC982;}
</style>
<g>
	<rect x="-44.8" y="-1" class="st0" width="2093.6" height="1181"/>
	<path class="st1" d="M951.8,46.6H662c-21.5,0-38.9,17.4-38.9,38.9s17.4,38.9,38.9,38.9h289.8c21.5,0,38.9-17.4,38.9-38.9
		S973.3,46.6,951.8,46.6z"/>
	<path class="st1" d="M1705.3,93.1h-391.5c-26.3,0-47.6,21.3-47.6,47.6c0,26.3,21.3,47.6,47.6,47.6h391.5
		c26.3,0,47.6-21.3,47.6-47.6C1753,114.4,1731.7,93.1,1705.3,93.1z"/>
	<path class="st1" d="M1645.3,299.3c-22.8,0-41.3,18.5-41.3,41.3c0,22.8,18.5,41.3,41.3,41.3H2038v-82.7H1645.3z"/>
	<path class="st1" d="M66.7,381.9c22.8,0,41.3-18.5,41.3-41.3c0-22.8-18.5-41.3-41.3-41.3H-326v82.7H66.7z"/>
	<path class="st1" d="M345.3,1.5c0-0.8-0.1-1.7-0.1-2.5H-43v51.3h339.5C323.5,50.3,345.3,28.4,345.3,1.5z"/>
	<path class="st1" d="M1892.2,1.5c0-0.8,0.1-1.7,0.1-2.5h388.2v51.3h-339.5C1914,50.3,1892.2,28.4,1892.2,1.5z"/>
	<path class="st1" d="M755.9,399.8H348.5c-32.7,0-59.2-26.5-59.2-59.2v0c0-32.7,26.5-59.2,59.2-59.2h407.4
		c32.7,0,59.2,26.5,59.2,59.2v0C815.1,373.3,788.6,399.8,755.9,399.8z"/>
</g>
<path class="st2" d="M2009.7,1113.6h-0.3c-0.1-0.2-0.3-0.4-0.4-0.6C2009.2,1113.2,2009.5,1113.4,2009.7,1113.6z"/>
</svg>
