<?xml version="1.0" encoding="utf-8"?>
<!-- Generator: Adobe Illustrator 21.1.0, SVG Export Plug-In . SVG Version: 6.00 Build 0)  -->
<svg version="1.1" id="Camada_1" xmlns="http://www.w3.org/2000/svg" xmlns:xlink="http://www.w3.org/1999/xlink" x="0px" y="0px"
	 viewBox="0 0 2000 1507.5" style="enable-background:new 0 0 2000 1507.5;" xml:space="preserve">
<style type="text/css">
	.st0{fill:#A1B574;}
	.st1{fill:#9A9A9A;}
	.st2{fill:#BABABA;}
	.st3{fill:#DADADC;}
	.st4{fill:#BBC982;}
	.st5{fill:#4F5056;}
	.st6{fill:#FFFFFF;}
</style>
<rect x="-107.3" y="1181" class="st0" width="2214.6" height="326.5"/>
<g>
	<rect x="-107.3" y="1054.1" class="st1" width="2214.6" height="171.1"/>
	<rect x="-107.3" y="1051.4" class="st2" width="2214.6" height="43.1"/>
	<rect x="-107.3" y="1080.1" class="st3" width="2214.6" height="16.3"/>
	<rect x="-107.3" y="1225.2" class="st2" width="2214.6" height="73.1"/>
	<rect x="-107.3" y="1217.1" class="st3" width="2214.6" height="16.3"/>
	<rect x="-107.3" y="1290.2" class="st3" width="2214.6" height="16.3"/>
</g>
<g>
	<circle class="st4" cx="220.8" cy="1323.2" r="78.7"/>
	<circle class="st4" cx="621.9" cy="1323.2" r="78.7"/>
	<circle class="st4" cx="1023" cy="1323.2" r="78.7"/>
	<circle class="st4" cx="1424.1" cy="1323.2" r="78.7"/>
	<circle class="st4" cx="1825.2" cy="1323.2" r="78.7"/>
</g>
<g>
	<path class="st5" d="M5.4,1406.9v-270.4c4.9-2.1,8.2-7,8.2-12.6c0-7.6-6.2-13.8-13.8-13.8c-7.6,0-13.8,6.2-13.8,13.8
		c0,5.6,3.4,10.5,8.2,12.6v270.4c-7.1,1-13.1,3.8-16.6,7.6h-9v6.9H31v-6.9h-9C18.5,1410.7,12.5,1407.9,5.4,1406.9z"/>
	<g>
		<path class="st5" d="M-0.2,1001.4c-16.5,0-31,8.2-39.9,20.6h-8.8v14h97.5v-14h-8.8C30.9,1009.6,16.3,1001.4-0.2,1001.4z"/>
		<polygon class="st6" points="-16,1108.1 20.7,1108.1 33.4,1037.2 -33.8,1037.2 		"/>
		<rect x="-24.5" y="1100.5" class="st5" width="48.7" height="13.2"/>
		<circle class="st5" cx="-0.2" cy="1119.1" r="10.4"/>
	</g>
</g>
<g>
	<path class="st5" d="M401.5,1406.9v-270.4c4.9-2.1,8.2-7,8.2-12.6c0-7.6-6.2-13.8-13.8-13.8c-7.6,0-13.8,6.2-13.8,13.8
		c0,5.6,3.4,10.5,8.2,12.6v270.4c-7.1,1-13.1,3.8-16.6,7.6h-9v6.9h62.3v-6.9h-9C414.6,1410.6,408.6,1407.8,401.5,1406.9z"/>
	<g>
		<path class="st5" d="M395.9,1001.4c-16.5,0-31,8.2-39.9,20.6h-8.8v14h97.5v-14h-8.8C427,1009.5,412.4,1001.4,395.9,1001.4z"/>
		<polygon class="st6" points="380.1,1108 416.8,1108 429.5,1037.2 362.3,1037.2 		"/>
		<rect x="371.6" y="1100.4" class="st5" width="48.7" height="13.2"/>
		<circle class="st5" cx="395.9" cy="1119" r="10.4"/>
	</g>
</g>
<g>
	<path class="st5" d="M819.5,1406.9v-270.4c4.9-2.1,8.2-7,8.2-12.6c0-7.6-6.2-13.8-13.8-13.8c-7.6,0-13.8,6.2-13.8,13.8
		c0,5.6,3.4,10.5,8.2,12.6v270.4c-7.1,1-13.1,3.8-16.6,7.6h-9v6.9h62.3v-6.9h-9C832.6,1410.6,826.6,1407.8,819.5,1406.9z"/>
	<g>
		<path class="st5" d="M814,1001.4c-16.5,0-31,8.2-39.9,20.6h-8.8v14h97.5v-14h-8.8C845,1009.5,830.5,1001.4,814,1001.4z"/>
		<polygon class="st6" points="798.2,1108 834.9,1108 847.6,1037.2 780.4,1037.2 		"/>
		<rect x="789.6" y="1100.4" class="st5" width="48.7" height="13.2"/>
		<circle class="st5" cx="814" cy="1119" r="10.4"/>
	</g>
</g>
<g>
	<path class="st5" d="M1237.6,1406.9v-270.4c4.9-2.1,8.2-7,8.2-12.6c0-7.6-6.2-13.8-13.8-13.8c-7.6,0-13.8,6.2-13.8,13.8
		c0,5.6,3.4,10.5,8.2,12.6v270.4c-7.1,1-13.1,3.8-16.6,7.6h-9v6.9h62.3v-6.9h-9C1250.7,1410.6,1244.7,1407.8,1237.6,1406.9z"/>
	<g>
		<path class="st5" d="M1232,1001.4c-16.5,0-31,8.2-39.9,20.6h-8.8v14h97.5v-14h-8.8C1263.1,1009.5,1248.5,1001.4,1232,1001.4z"/>
		<polygon class="st6" points="1216.2,1108 1252.9,1108 1265.6,1037.2 1198.4,1037.2 		"/>
		<rect x="1207.7" y="1100.4" class="st5" width="48.7" height="13.2"/>
		<circle class="st5" cx="1232" cy="1119" r="10.4"/>
	</g>
</g>
<g>
	<path class="st5" d="M2006,1406.9v-270.4c4.9-2.1,8.2-7,8.2-12.6c0-7.6-6.2-13.8-13.8-13.8c-7.6,0-13.8,6.2-13.8,13.8
		c0,5.6,3.4,10.5,8.2,12.6v270.4c-7.1,1-13.1,3.8-16.6,7.6h-9v6.9h62.3v-6.9h-9C2019.1,1410.6,2013.1,1407.8,2006,1406.9z"/>
	<g>
		<path class="st5" d="M2000.4,1001.4c-16.5,0-31,8.2-39.9,20.6h-8.8v14h97.5v-14h-8.8C2031.4,1009.5,2016.9,1001.4,2000.4,1001.4z"
			/>
		<polygon class="st6" points="1984.6,1108 2021.3,1108 2034,1037.2 1966.8,1037.2 		"/>
		<rect x="1976.1" y="1100.4" class="st5" width="48.7" height="13.2"/>
		<circle class="st5" cx="2000.4" cy="1119" r="10.4"/>
	</g>
</g>
<g>
	<path class="st5" d="M1655.6,1406.9v-270.4c4.9-2.1,8.2-7,8.2-12.6c0-7.6-6.2-13.8-13.8-13.8c-7.6,0-13.8,6.2-13.8,13.8
		c0,5.6,3.4,10.5,8.2,12.6v270.4c-7.1,1-13.1,3.8-16.6,7.6h-9v6.9h62.3v-6.9h-9C1668.7,1410.6,1662.7,1407.8,1655.6,1406.9z"/>
	<g>
		<path class="st5" d="M1650.1,1001.4c-16.5,0-31,8.2-39.9,20.6h-8.8v14h97.5v-14h-8.8C1681.1,1009.5,1666.5,1001.4,1650.1,1001.4z"
			/>
		<polygon class="st6" points="1634.3,1108 1670.9,1108 1683.6,1037.2 1616.5,1037.2 		"/>
		<rect x="1625.7" y="1100.4" class="st5" width="48.7" height="13.2"/>
		<circle class="st5" cx="1650.1" cy="1119" r="10.4"/>
	</g>
</g>
</svg>
