<?xml version="1.0" encoding="utf-8"?>
<!-- Generator: Adobe Illustrator 21.1.0, SVG Export Plug-In . SVG Version: 6.00 Build 0)  -->
<svg version="1.1" id="Camada_1" xmlns="http://www.w3.org/2000/svg" xmlns:xlink="http://www.w3.org/1999/xlink" x="0px" y="0px"
	 viewBox="0 0 2000 1507.5" style="enable-background:new 0 0 2000 1507.5;" xml:space="preserve">
<style type="text/css">
	.st0{fill:#C9D5D6;}
	.st1{fill:#98AAAA;}
	.st2{opacity:0.4;}
	.st3{fill:#A3B5B5;}
	.st4{fill:#7A8B8A;}
	.st5{fill:#AEC0C1;}
	.st6{fill:#BBC982;}
</style>
<g>
	<polygon class="st0" points="1095.4,183.8 793.6,183.8 793.6,1238.4 1094.3,1238.4 1094.3,1423.1 1396.1,1423.1 1396.1,368.4 
		1095.4,368.4 	"/>
	<rect y="743.5" class="st1" width="391.7" height="501.4"/>
	<polygon class="st1" points="1852.7,542.7 1663.2,660.2 1663.2,1244.9 2000,1244.9 2000,660.1 	"/>
	<rect x="204.5" y="127.5" class="st0" width="295.4" height="1030.8"/>
	<g class="st2">
		<g>
			<rect x="238.5" y="157.5" class="st3" width="33.4" height="74.6"/>
			<rect x="302.4" y="157.5" class="st3" width="33.4" height="74.6"/>
			<rect x="366.3" y="157.5" class="st3" width="33.4" height="74.6"/>
			<rect x="430.1" y="157.5" class="st3" width="33.4" height="74.6"/>
		</g>
		<g>
			<rect x="238.5" y="250.8" class="st3" width="33.4" height="74.6"/>
			<rect x="302.4" y="250.8" class="st3" width="33.4" height="74.6"/>
			<rect x="366.3" y="250.8" class="st3" width="33.4" height="74.6"/>
			<rect x="430.1" y="250.8" class="st3" width="33.4" height="74.6"/>
		</g>
		<g>
			<rect x="238.5" y="344" class="st3" width="33.4" height="74.6"/>
			<rect x="302.4" y="344" class="st3" width="33.4" height="74.6"/>
			<rect x="366.3" y="344" class="st3" width="33.4" height="74.6"/>
			<rect x="430.1" y="344" class="st3" width="33.4" height="74.6"/>
		</g>
		<g>
			<rect x="238.5" y="437.3" class="st3" width="33.4" height="74.6"/>
			<rect x="302.4" y="437.3" class="st3" width="33.4" height="74.6"/>
			<rect x="366.3" y="437.3" class="st3" width="33.4" height="74.6"/>
			<rect x="430.1" y="437.3" class="st3" width="33.4" height="74.6"/>
		</g>
		<g>
			<rect x="238.5" y="530.5" class="st3" width="33.4" height="74.6"/>
			<rect x="302.4" y="530.5" class="st3" width="33.4" height="74.6"/>
			<rect x="366.3" y="530.5" class="st3" width="33.4" height="74.6"/>
			<rect x="430.1" y="530.5" class="st3" width="33.4" height="74.6"/>
		</g>
		<g>
			<rect x="238.5" y="624.9" class="st3" width="33.4" height="74.6"/>
			<rect x="302.4" y="624.9" class="st3" width="33.4" height="74.6"/>
			<rect x="366.3" y="624.9" class="st3" width="33.4" height="74.6"/>
			<rect x="430.1" y="624.9" class="st3" width="33.4" height="74.6"/>
		</g>
	</g>
	<g class="st2">
		<g>
			<rect x="830.8" y="205.3" class="st3" width="33.4" height="58.3"/>
			<rect x="894.6" y="205.3" class="st3" width="33.4" height="58.3"/>
			<rect x="958.5" y="205.3" class="st3" width="33.4" height="58.3"/>
			<rect x="1022.4" y="205.3" class="st3" width="33.4" height="58.3"/>
		</g>
		<g>
			<rect x="830.8" y="278.1" class="st3" width="33.4" height="58.3"/>
			<rect x="894.6" y="278.1" class="st3" width="33.4" height="58.3"/>
			<rect x="958.5" y="278.1" class="st3" width="33.4" height="58.3"/>
			<rect x="1022.4" y="278.1" class="st3" width="33.4" height="58.3"/>
		</g>
		<g>
			<rect x="830.8" y="351" class="st3" width="33.4" height="58.3"/>
			<rect x="894.6" y="351" class="st3" width="33.4" height="58.3"/>
			<rect x="958.5" y="351" class="st3" width="33.4" height="58.3"/>
			<rect x="1022.4" y="351" class="st3" width="33.4" height="58.3"/>
		</g>
		<g>
			<rect x="830.8" y="423.9" class="st3" width="33.4" height="58.3"/>
			<rect x="894.6" y="423.9" class="st3" width="33.4" height="58.3"/>
			<rect x="958.5" y="423.9" class="st3" width="33.4" height="58.3"/>
			<rect x="1022.4" y="423.9" class="st3" width="33.4" height="58.3"/>
		</g>
		<g>
			<rect x="830.8" y="496.8" class="st3" width="33.4" height="58.3"/>
			<rect x="894.6" y="496.8" class="st3" width="33.4" height="58.3"/>
			<rect x="958.5" y="496.8" class="st3" width="33.4" height="58.3"/>
			<rect x="1022.4" y="496.8" class="st3" width="33.4" height="58.3"/>
		</g>
		<g>
			<rect x="830.8" y="570.6" class="st3" width="33.4" height="58.3"/>
			<rect x="894.6" y="570.6" class="st3" width="33.4" height="58.3"/>
			<rect x="958.5" y="570.6" class="st3" width="33.4" height="58.3"/>
			<rect x="1022.4" y="570.6" class="st3" width="33.4" height="58.3"/>
		</g>
	</g>
	<path class="st4" d="M1880,998.6h-15c-41.4,0-75,43.7-75,97.6V1242h165v-145.8C1955,1042.2,1921.5,998.6,1880,998.6z"/>
	<rect x="456.1" y="405" class="st5" width="306.3" height="833.4"/>
	<rect x="1349.6" y="142.7" class="st5" width="347.2" height="977.4"/>
	<rect x="744.8" y="476.2" class="st5" width="451" height="724.9"/>
	<g>
		<g>
			<rect x="1376.7" y="183.8" class="st3" width="43.8" height="90"/>
			<rect x="1460.4" y="183.8" class="st3" width="43.8" height="90"/>
			<rect x="1544.1" y="183.8" class="st3" width="43.8" height="90"/>
			<rect x="1627.8" y="183.8" class="st3" width="43.8" height="90"/>
		</g>
		<g>
			<rect x="1376.7" y="296.3" class="st3" width="43.8" height="90"/>
			<rect x="1460.4" y="296.3" class="st3" width="43.8" height="90"/>
			<rect x="1544.1" y="296.3" class="st3" width="43.8" height="90"/>
			<rect x="1627.8" y="296.3" class="st3" width="43.8" height="90"/>
		</g>
		<g>
			<rect x="1376.7" y="408.8" class="st3" width="43.8" height="90"/>
			<rect x="1460.4" y="408.8" class="st3" width="43.8" height="90"/>
			<rect x="1544.1" y="408.8" class="st3" width="43.8" height="90"/>
			<rect x="1627.8" y="408.8" class="st3" width="43.8" height="90"/>
		</g>
		<g>
			<rect x="1376.7" y="521.3" class="st3" width="43.8" height="90"/>
			<rect x="1460.4" y="521.3" class="st3" width="43.8" height="90"/>
			<rect x="1544.1" y="521.3" class="st3" width="43.8" height="90"/>
			<rect x="1627.8" y="521.3" class="st3" width="43.8" height="90"/>
		</g>
		<g>
			<rect x="1376.7" y="633.8" class="st3" width="43.8" height="90"/>
			<rect x="1460.4" y="633.8" class="st3" width="43.8" height="90"/>
			<rect x="1544.1" y="633.8" class="st3" width="43.8" height="90"/>
			<rect x="1627.8" y="633.8" class="st3" width="43.8" height="90"/>
		</g>
	</g>
	<g>
		<rect x="487.2" y="433.4" class="st3" width="255.1" height="77.6"/>
		<rect x="487.2" y="533.3" class="st3" width="683.4" height="77.6"/>
		<rect x="487.2" y="633.2" class="st3" width="683.4" height="77.6"/>
		<rect x="487.2" y="733.1" class="st3" width="683.4" height="77.6"/>
	</g>
	<rect x="970.3" y="433.4" class="st5" width="184.7" height="42.9"/>
	<rect x="1052.5" y="273.8" class="st5" width="23.6" height="180"/>
	<rect x="1108.7" y="341.3" class="st5" width="21.3" height="130.9"/>
</g>
<path class="st6" d="M2009.7,1113.6h-0.3c-0.1-0.2-0.3-0.4-0.4-0.6C2009.2,1113.2,2009.5,1113.4,2009.7,1113.6z"/>
</svg>
